<svg width="16" height="16" viewBox="0 0 16 16" fill="none" xmlns="http://www.w3.org/2000/svg">
<g clip-path="url(#clip0_1002_2344)">
<path fill-rule="evenodd" clip-rule="evenodd" d="M15.6857 1.03579C13.0854 -0.00435406 10.5064 0.483854 8 1.92037C5.49364 0.483855 2.91462 -0.00434226 0.314303 1.03579L0 1.16151V14.2385L0.685697 13.9643C3.08603 13.0041 5.84352 13.0506 7.64644 14.8536L8 15.2071L8.35356 14.8536C10.1565 13.0506 12.914 13.0041 15.3143 13.9643L16 14.2385V1.16151L15.6857 1.03579ZM8.5 2.78637C10.7178 1.51542 12.8696 1.10893 15 1.84698V12.7898C12.866 12.1101 10.4208 12.1193 8.5 13.4363V2.78637ZM7.5 2.78637C5.28221 1.51542 3.13035 1.10894 1 1.84698V12.7898C3.13404 12.1101 5.57921 12.1193 7.5 13.4363V2.78637Z" fill="#B8B8B8"/>
</g>
<defs>
<clipPath id="clip0_1002_2344">
<rect width="16" height="16" fill="white"/>
</clipPath>
</defs>
</svg>
