<svg width="16" height="16" viewBox="0 0 16 16" fill="none" xmlns="http://www.w3.org/2000/svg">
<path d="M13.2064 3.4521C12.2209 3.0009 11.1805 2.68081 10.1118 2.5C9.96557 2.76143 9.83325 3.03041 9.7154 3.3058C8.57703 3.13426 7.41938 3.13426 6.28101 3.3058C6.16309 3.03043 6.03077 2.76146 5.88459 2.5C4.81521 2.68234 3.77413 3.00319 2.78762 3.45446C0.829153 6.35205 0.298243 9.17766 0.563698 11.9632C1.71063 12.8106 2.99436 13.455 4.35911 13.8685C4.66641 13.4552 4.93834 13.0168 5.17199 12.5578C4.72819 12.392 4.29985 12.1875 3.89191 11.9467C3.99927 11.8688 4.10428 11.7886 4.20574 11.7107C5.39273 12.2689 6.68827 12.5583 7.99997 12.5583C9.31167 12.5583 10.6072 12.2689 11.7942 11.7107C11.8969 11.7945 12.0019 11.8747 12.108 11.9467C11.6993 12.1879 11.2702 12.3928 10.8256 12.559C11.059 13.0177 11.3309 13.4558 11.6385 13.8685C13.0044 13.4567 14.2891 12.8125 15.4362 11.9644C15.7477 8.73406 14.9042 5.9344 13.2064 3.4521ZM5.50824 10.2501C4.7685 10.2501 4.15737 9.5788 4.15737 8.75294C4.15737 7.92708 4.74727 7.24987 5.50588 7.24987C6.26449 7.24987 6.87091 7.92708 6.85793 8.75294C6.84495 9.5788 6.26213 10.2501 5.50824 10.2501ZM10.4917 10.2501C9.7508 10.2501 9.14202 9.5788 9.14202 8.75294C9.14202 7.92708 9.73192 7.24987 10.4917 7.24987C11.2515 7.24987 11.8532 7.92708 11.8402 8.75294C11.8272 9.5788 11.2456 10.2501 10.4917 10.2501Z" stroke="#B8B8B8"/>
</svg>
