<svg width="16" height="16" viewBox="0 0 16 16" fill="none" xmlns="http://www.w3.org/2000/svg">
<g clip-path="url(#clip0_1242_319)">
<path fill-rule="evenodd" clip-rule="evenodd" d="M8.00621 0.5C3.85547 0.5 0.5 3.8802 0.5 8.06198C0.5 11.4047 2.64996 14.2342 5.63253 15.2357C6.00543 15.311 6.14202 15.073 6.14202 14.8728C6.14202 14.6975 6.12973 14.0966 6.12973 13.4705C4.04169 13.9213 3.60687 12.569 3.60687 12.569C3.27131 11.6926 2.77411 11.4674 2.77411 11.4674C2.09069 11.0041 2.82389 11.0041 2.82389 11.0041C3.58198 11.0542 3.97977 11.7804 3.97977 11.7804C4.65074 12.9321 5.73194 12.6067 6.16691 12.4063C6.22899 11.918 6.42796 11.58 6.63922 11.3922C4.97386 11.2169 3.22168 10.5659 3.22168 7.66127C3.22168 6.83497 3.51975 6.15892 3.99206 5.63315C3.91754 5.44539 3.6565 4.66902 4.06673 3.62992C4.06673 3.62992 4.70052 3.42956 6.12958 4.40613C6.74141 4.24061 7.37238 4.1564 8.00621 4.15569C8.63999 4.15569 9.28607 4.24342 9.88268 4.40613C11.3119 3.42956 11.9457 3.62992 11.9457 3.62992C12.3559 4.66902 12.0947 5.44539 12.0202 5.63315C12.505 6.15892 12.7907 6.83497 12.7907 7.66127C12.7907 10.5659 11.0386 11.2043 9.36075 11.3922C9.63424 11.6301 9.87024 12.0807 9.87024 12.7944C9.87024 13.8085 9.85794 14.6223 9.85794 14.8726C9.85794 15.073 9.99469 15.311 10.3674 15.2358C13.35 14.2341 15.5 11.4047 15.5 8.06198C15.5123 3.8802 12.1445 0.5 8.00621 0.5Z" stroke="currentColor"/>
</g>
<defs>
<clipPath id="clip0_1242_319">
<rect width="16" height="16" fill="currentColor"/>
</clipPath>
</defs>
</svg>
