<svg width="300" height="300" viewBox="0 0 300 300" fill="none" xmlns="http://www.w3.org/2000/svg">
<g id="qrCode">
<path d="M261.722 38.278V70.0208H229.979V38.278H261.722Z" fill="currentcolor"/>
<path fill-rule="evenodd" clip-rule="evenodd" d="M283.195 16.805H208.506V91.4938H283.195V16.805ZM272.614 80.9129H219.087V27.3859H272.614V80.9129Z" fill="currentcolor"/>
<path d="M165.871 197.614V187.344H155.29V197.614H165.871Z" fill="currentcolor"/>
<path d="M219.087 219.087V208.506H208.506V219.087H219.087Z" fill="currentcolor"/>
<path fill-rule="evenodd" clip-rule="evenodd" d="M283.195 102.075H251.141V112.656H240.56V102.075H229.979V112.656H219.087V123.237H240.56V134.129H229.979V144.71H208.506V155.29H229.979V176.763H208.506V187.344H187.344V165.871H197.925V134.129H187.344V112.656H208.506V102.075H197.925V70.0208H187.344V91.4938H176.763V59.4398H197.925V48.8589H176.763V38.278H155.29V80.9129H144.71V70.0208H134.129V38.278H112.656V27.3859H144.71V16.805H102.075V48.8589H112.656V59.4398H102.075V70.0208H112.656V80.9129H102.075V91.4938H112.656V102.075H48.8589V112.656H59.4398V123.237H48.8589V134.129H38.278V112.656H27.3859V102.075H16.805V123.237H27.3859V144.71H48.8589V134.129H91.4938V144.71H80.9129V155.29H102.075V176.763H91.4938V165.871H80.9129V176.763H91.4938V187.344H38.278V197.925H102.075V251.141H112.656V272.614H102.075V283.195H123.237V272.614H134.129V261.722H123.237V229.979H134.129V219.087H144.71V240.56H155.29V251.141H144.71V261.722H165.871V272.614H144.71V283.195H176.763V261.722H208.506V251.141H219.087V240.56H240.56V187.344H251.141V208.506H272.614V219.087H261.722V251.141H229.979V261.722H219.087V272.614H240.56V283.195H251.141V272.614H272.614V283.195H283.195V229.979H272.614V219.087H283.195V208.506H272.614V187.344H283.195V165.871H272.614V155.29H283.195V123.237H272.614V112.656H283.195V102.075ZM272.614 123.237V134.129H251.141V123.237H272.614ZM272.614 187.344H261.722V176.763H272.614V187.344ZM251.141 272.614V261.722H240.56V272.614H251.141ZM176.763 251.141V261.722H165.871V251.141H176.763ZM176.763 240.56H155.29V229.979H165.871V219.087H176.763V240.56ZM176.763 240.56V251.141H197.925V240.56H176.763ZM176.763 219.087V197.925H165.871V219.087H144.71V208.506H155.29V197.925H134.129V219.087H112.656V187.344H144.71V176.763H155.29V165.871H134.129V176.763H123.237V165.871H112.656V155.29H123.237V144.71H134.129V155.29H155.29V144.71H134.129V123.237H123.237V112.656H112.656V102.075H123.237V91.4938H134.129V80.9129H144.71V91.4938H155.29V102.075H165.871V112.656H176.763V123.237H155.29V112.656H144.71V134.129H187.344V155.29H165.871V165.871H176.763V187.344H187.344V219.087H176.763ZM176.763 102.075H187.344V112.656H176.763V102.075ZM165.871 91.4938H176.763V102.075H165.871V91.4938ZM165.871 91.4938H155.29V80.9129H165.871V91.4938ZM123.237 80.9129H112.656V91.4938H123.237V80.9129ZM123.237 80.9129H134.129V70.0208H123.237V80.9129ZM112.656 112.656H102.075V155.29H112.656V134.129H123.237V123.237H112.656V112.656ZM176.763 48.8589H165.871V59.4398H176.763V48.8589ZM240.56 187.344H229.979V176.763H240.56V187.344ZM272.614 155.29H261.722V165.871H240.56V155.29H229.979V144.71H272.614V155.29ZM197.925 229.979H229.979V197.925H197.925V229.979ZM91.4938 112.656H80.9129V123.237H91.4938V112.656Z" fill="currentcolor"/>
<path d="M70.0208 229.979V261.722H38.278V229.979H70.0208Z" fill="currentcolor"/>
<path fill-rule="evenodd" clip-rule="evenodd" d="M91.4938 208.506V283.195H16.805V208.506H91.4938ZM80.9129 272.614H27.3859V219.087H80.9129V272.614Z" fill="currentcolor"/>
<path d="M27.3859 197.925H16.805V155.29H38.278V176.763H27.3859V197.925Z" fill="currentcolor"/>
<path d="M70.0208 70.0208V38.278H38.278V70.0208H70.0208Z" fill="currentcolor"/>
<path fill-rule="evenodd" clip-rule="evenodd" d="M16.805 16.805H91.4938V91.4938H16.805V16.805ZM27.3859 80.9129H80.9129V27.3859H27.3859V80.9129Z" fill="currentcolor"/>
<path d="M165.871 16.805H155.29V27.3859H165.871V16.805Z" fill="currentcolor"/>
<path d="M208.506 283.195V272.614H187.344V283.195H208.506Z" fill="currentcolor"/>
<path d="M48.8589 165.871H59.4398V176.763H70.0208V165.871H59.4398V155.29H48.8589V165.871Z" fill="currentcolor"/>
<path fill-rule="evenodd" clip-rule="evenodd" d="M300 0H0V300H300V0ZM6.22407 6.22407V293.776H293.776V6.22407H6.22407Z" fill="currentColor" />
</g>
</svg>
