<svg width="16" height="16" viewBox="0 0 16 16" fill="none" xmlns="http://www.w3.org/2000/svg">
<g id="Class=Stroke">
<g clip-path="url(#clip0_1244_2373)">
<path id="Union" d="M8 3.5C10.4663 3.5 12.4692 5.48401 12.4997 7.94305C12.4962 7.65887 12.4667 7.38351 12.4143 7.11849L15.3572 6.53628C15.4509 7.00969 15.5 7.49911 15.5 8C15.5 8.50089 15.4509 8.99031 15.3572 9.46372L12.4143 8.88151C12.4658 8.62104 12.4952 8.3506 12.4994 8.0716C12.4615 10.5049 10.4921 12.4694 8.05695 12.4997C8.34113 12.4962 8.61649 12.4667 8.88151 12.4143L9.46372 15.3572C8.99031 15.4509 8.50089 15.5 8 15.5C7.49911 15.5 7.00969 15.4509 6.53628 15.3572L7.11849 12.4143C7.37896 12.4658 7.6494 12.4952 7.9284 12.4994C6.75385 12.4811 5.68852 12.0128 4.89724 11.2593C5.08429 11.4375 5.28658 11.5997 5.50184 11.7438L3.83288 14.2367C3.015 13.6892 2.31082 12.985 1.76326 12.1671L4.25616 10.4982C4.39752 10.7093 4.55633 10.908 4.73048 11.092C3.96773 10.2857 3.5 9.19748 3.5 8M8 3.5C8.30437 3.5 8.59882 3.52979 8.88151 3.58572L9.46372 0.642756C8.99031 0.549102 8.50089 0.5 8 0.5C7.49911 0.5 7.00969 0.549102 6.53628 0.642755L7.11849 3.58572C7.40118 3.52979 7.69563 3.5 8 3.5ZM8 3.5C6.78901 3.5 5.68974 3.97835 4.88084 4.7564C5.07245 4.57207 5.28027 4.4045 5.50184 4.25616L3.83288 1.76326C3.015 2.31082 2.31082 3.015 1.76326 3.83288L4.25616 5.50184C4.41057 5.2712 4.58582 5.05546 4.77912 4.8574C3.98767 5.66844 3.5 6.77727 3.5 8M3.5 8C3.5 7.69563 3.52979 7.40118 3.58572 7.11849L0.642756 6.53628C0.549102 7.00969 0.5 7.49911 0.5 8C0.5 8.50089 0.549102 8.99031 0.642755 9.46372L3.58572 8.88151C3.52979 8.59882 3.5 8.30437 3.5 8ZM14.2367 3.83288L11.7438 5.50184C11.4144 5.00982 10.9902 4.58557 10.4982 4.25616L12.1671 1.76326C12.985 2.31082 13.6892 3.015 14.2367 3.83288ZM12.1671 14.2367C12.985 13.6892 13.6892 12.985 14.2367 12.1671L11.7438 10.4982C11.4144 10.9902 10.9902 11.4144 10.4982 11.7438L12.1671 14.2367ZM8 10.5C9.38071 10.5 10.5 9.38071 10.5 8C10.5 6.61929 9.38071 5.5 8 5.5C6.61929 5.5 5.5 6.61929 5.5 8C5.5 9.38071 6.61929 10.5 8 10.5Z" stroke="currentColor"/>
</g>
</g>
<defs>
<clipPath id="clip0_1244_2373">
<rect width="16" height="16" rx="8" fill="currentColor"/>
</clipPath>
</defs>
</svg>
