<svg width="16" height="16" viewBox="0 0 16 16" fill="none" xmlns="http://www.w3.org/2000/svg">
<g clip-path="url(#clip0_1244_359)">
<path d="M2.8519 14.7728L2.46885 15.6965C2.94048 15.8921 3.45763 16 4 16H6V15H4C3.59138 15 3.20424 14.9189 2.8519 14.7728Z" fill="#B8B8B8"/>
<path d="M10 15V16H12C12.5424 16 13.0595 15.8921 13.5312 15.6965L13.1481 14.7728C12.7958 14.9189 12.4086 15 12 15H10Z" fill="#B8B8B8"/>
<path d="M15 6H16V4C16 3.45763 15.8921 2.94048 15.6965 2.46885L14.7728 2.8519C14.9189 3.20424 15 3.59138 15 4V6Z" fill="#B8B8B8"/>
<path d="M4 0H6V1H4C3.59138 1 3.20424 1.08114 2.8519 1.22725L2.46885 0.303522C2.94048 0.107945 3.45763 0 4 0Z" fill="#B8B8B8"/>
<path d="M1 10H0V12C0 12.5424 0.107945 13.0595 0.303522 13.5312L1.22725 13.1481C1.08114 12.7958 1 12.4086 1 12V10Z" fill="#B8B8B8"/>
<path d="M1 6H0V4C0 3.45763 0.107945 2.94048 0.303522 2.46885L1.22725 2.8519C1.08114 3.20424 1 3.59138 1 4V6Z" fill="#B8B8B8"/>
<path d="M10 1V0H12C12.5424 0 13.0595 0.107945 13.5312 0.303522L13.1481 1.22725C12.7958 1.08114 12.4086 1 12 1H10Z" fill="#B8B8B8"/>
<path d="M15 10H16V12C16 12.5424 15.8921 13.0595 15.6965 13.5312L14.7728 13.1481C14.9189 12.7958 15 12.4086 15 12V10Z" fill="#B8B8B8"/>
<path d="M4.5 11C4.22386 11 4 11.2239 4 11.5C4 11.7761 4.22386 12 4.5 12H8.5C8.77614 12 9 11.7761 9 11.5C9 11.2239 8.77614 11 8.5 11H4.5Z" fill="#B8B8B8"/>
<path d="M6.14645 6.14645C6.34171 5.95118 6.65829 5.95118 6.85355 6.14645L9.85355 9.14645C10.0488 9.34171 10.0488 9.65829 9.85355 9.85355C9.65829 10.0488 9.34171 10.0488 9.14645 9.85355L6.14645 6.85355C5.95118 6.65829 5.95118 6.34171 6.14645 6.14645Z" fill="#B8B8B8"/>
<path d="M11.5 4C11.2239 4 11 4.22386 11 4.5V8.5C11 8.77614 11.2239 9 11.5 9C11.7761 9 12 8.77614 12 8.5V4.5C12 4.22386 11.7761 4 11.5 4Z" fill="#B8B8B8"/>
</g>
<defs>
<clipPath id="clip0_1244_359">
<rect width="16" height="16" fill="white"/>
</clipPath>
</defs>
</svg>
