<svg width="24" height="24" viewBox="0 0 24 24" fill="none" xmlns="http://www.w3.org/2000/svg">
<rect width="24" height="24" rx="6" fill="white"/>
<path d="M15.2727 15.8181H16.9091C17.8128 15.8181 18.5454 16.5507 18.5454 17.4545V17.4545C18.5454 18.3582 17.8128 19.0908 16.9091 19.0908V19.0908C16.0053 19.0908 15.2727 18.3582 15.2727 17.4545V15.8181Z" fill="#7654FF"/>
<path opacity="0.9" d="M10.3635 16.8181C10.3635 16.2658 10.8112 15.8181 11.3635 15.8181H12.6363C13.1885 15.8181 13.6363 16.2658 13.6363 16.8181V17.4545C13.6363 18.3582 12.9036 19.0908 11.9999 19.0908V19.0908C11.0962 19.0908 10.3635 18.3582 10.3635 17.4545V16.8181Z" fill="#A994FF"/>
<path d="M5.45459 17.4545C5.45459 16.5507 6.18721 15.8181 7.09095 15.8181H8.72732V17.4545C8.72732 18.3582 7.99469 19.0908 7.09095 19.0908V19.0908C6.18721 19.0908 5.45459 18.3582 5.45459 17.4545V17.4545Z" fill="#7654FF"/>
<path opacity="0.9" d="M15.2727 11.3635C15.2727 10.8112 15.7204 10.3635 16.2727 10.3635H16.9091C17.8128 10.3635 18.5454 11.0962 18.5454 11.9999V11.9999C18.5454 12.9036 17.8128 13.6363 16.9091 13.6363H16.2727C15.7204 13.6363 15.2727 13.1885 15.2727 12.6363V11.3635Z" fill="#A994FF"/>
<path opacity="0.9" d="M5.45459 11.9999C5.45459 11.0962 6.18721 10.3635 7.09095 10.3635H7.72732C8.2796 10.3635 8.72732 10.8112 8.72732 11.3635V12.6363C8.72732 13.1885 8.2796 13.6363 7.72732 13.6363H7.09095C6.18721 13.6363 5.45459 12.9036 5.45459 11.9999V11.9999Z" fill="#A994FF"/>
<path opacity="0.9" d="M10.3635 7.09095C10.3635 6.18721 11.0962 5.45459 11.9999 5.45459V5.45459C12.9036 5.45459 13.6363 6.18721 13.6363 7.09095V7.72732C13.6363 8.2796 13.1885 8.72732 12.6363 8.72732H11.3635C10.8112 8.72732 10.3635 8.2796 10.3635 7.72732V7.09095Z" fill="#A994FF"/>
<path d="M15.2727 7.09095C15.2727 6.18721 16.0053 5.45459 16.9091 5.45459V5.45459C17.8128 5.45459 18.5454 6.18721 18.5454 7.09095V7.09095C18.5454 7.99469 17.8128 8.72732 16.9091 8.72732H15.2727V7.09095Z" fill="#7654FF"/>
<path d="M5.45459 7.09095C5.45459 6.18721 6.18721 5.45459 7.09095 5.45459V5.45459C7.99469 5.45459 8.72732 6.18721 8.72732 7.09095V8.72732H7.09095C6.18721 8.72732 5.45459 7.99469 5.45459 7.09095V7.09095Z" fill="#7654FF"/>
<path d="M9.10059 20.0509V9.99708C9.10059 8.94108 9.38422 8.15999 9.9515 7.6538C10.5275 7.14762 11.2999 6.89453 12.2686 6.89453C13.2024 6.89453 13.9355 7.10399 14.4679 7.5229C15.0002 7.9418 15.2664 8.57017 15.2664 9.40799C15.2664 10.0363 15.1093 10.5382 14.7951 10.9134C14.4809 11.28 14.0577 11.5113 13.5253 11.6073V11.6465C14.1973 11.7338 14.7384 11.9738 15.1486 12.3665C15.5675 12.7593 15.7769 13.3527 15.7769 14.1469C15.7769 14.7578 15.6373 15.2814 15.358 15.7178C15.0875 16.1454 14.7209 16.4727 14.2584 16.6996C13.8046 16.9265 13.2984 17.04 12.7399 17.04C12.4606 17.04 12.2293 17.0225 12.046 16.9876C11.8628 16.9614 11.6926 16.9178 11.5355 16.8567C11.3871 16.7956 11.2257 16.7214 11.0511 16.6342V20.0509H9.10059ZM12.3733 15.4822C12.8097 15.4822 13.15 15.3513 13.3944 15.0894C13.6388 14.8189 13.7609 14.448 13.7609 13.9767C13.7609 13.6189 13.6868 13.3309 13.5384 13.1127C13.3988 12.8858 13.2199 12.7244 13.0017 12.6284C12.7835 12.5236 12.5566 12.4713 12.3209 12.4713H11.7319V11.0051H12.2031C12.5522 11.0051 12.8228 10.8785 13.0148 10.6254C13.2155 10.3724 13.3159 10.0451 13.3159 9.64362C13.3159 9.23344 13.2111 8.92799 13.0017 8.72726C12.7922 8.5178 12.5435 8.41308 12.2555 8.41308C11.8802 8.41308 11.5835 8.53526 11.3653 8.77962C11.1559 9.01526 11.0511 9.42544 11.0511 10.0102V15.0371C11.2693 15.1767 11.4831 15.2858 11.6926 15.3644C11.902 15.4429 12.1289 15.4822 12.3733 15.4822Z" fill="black"/>
</svg>
