<svg width="360" height="360" viewBox="0 0 360 360" fill="none" xmlns="http://www.w3.org/2000/svg">
<g id="svg">
<g id="canvas" clip-path="url(#clip0_848_9594)">
<rect width="360" height="360" fill="#818181" fill-opacity="0.25"/>
<line id="Line 1" y1="-0.5" x2="509.117" y2="-0.5" transform="matrix(0.707107 0.707107 -0.0305774 0.999532 0 0)" stroke="#7E7E7E" stroke-opacity="0.5"/>
<line id="Line 2" y1="-0.5" x2="509.117" y2="-0.5" transform="matrix(-0.707107 0.707107 -0.0305774 -0.999532 360 0)" stroke="#7E7E7E" stroke-opacity="0.5"/>
<g id="alt">
<rect x="147.5" y="158" width="66" height="44" rx="22" fill="#818181"/>
<path id="svg_2" d="M173.266 182.664C173.266 182.503 173.219 182.357 173.125 182.227C173.031 182.096 172.857 181.977 172.602 181.867C172.352 181.753 171.99 181.648 171.516 181.555C171.089 181.461 170.69 181.344 170.32 181.203C169.956 181.057 169.638 180.883 169.367 180.68C169.102 180.477 168.893 180.237 168.742 179.961C168.591 179.68 168.516 179.359 168.516 179C168.516 178.646 168.591 178.312 168.742 178C168.898 177.688 169.12 177.411 169.406 177.172C169.698 176.927 170.052 176.737 170.469 176.602C170.891 176.461 171.365 176.391 171.891 176.391C172.625 176.391 173.255 176.508 173.781 176.742C174.312 176.977 174.719 177.299 175 177.711C175.286 178.117 175.43 178.581 175.43 179.102H173.18C173.18 178.883 173.133 178.688 173.039 178.516C172.951 178.339 172.81 178.201 172.617 178.102C172.43 177.997 172.185 177.945 171.883 177.945C171.633 177.945 171.417 177.99 171.234 178.078C171.052 178.161 170.911 178.276 170.812 178.422C170.719 178.562 170.672 178.719 170.672 178.891C170.672 179.021 170.698 179.138 170.75 179.242C170.807 179.341 170.898 179.432 171.023 179.516C171.148 179.599 171.31 179.677 171.508 179.75C171.711 179.818 171.961 179.88 172.258 179.938C172.867 180.062 173.411 180.227 173.891 180.43C174.37 180.628 174.75 180.898 175.031 181.242C175.312 181.581 175.453 182.026 175.453 182.578C175.453 182.953 175.37 183.297 175.203 183.609C175.036 183.922 174.797 184.195 174.484 184.43C174.172 184.659 173.797 184.839 173.359 184.969C172.927 185.094 172.44 185.156 171.898 185.156C171.112 185.156 170.445 185.016 169.898 184.734C169.357 184.453 168.945 184.096 168.664 183.664C168.388 183.227 168.25 182.779 168.25 182.32H170.383C170.393 182.628 170.471 182.875 170.617 183.062C170.768 183.25 170.958 183.385 171.188 183.469C171.422 183.552 171.674 183.594 171.945 183.594C172.237 183.594 172.479 183.555 172.672 183.477C172.865 183.393 173.01 183.284 173.109 183.148C173.214 183.008 173.266 182.846 173.266 182.664ZM179.789 183.359L181.664 176.547H184.016L181.164 185H179.742L179.789 183.359ZM178.5 176.547L180.383 183.367L180.422 185H178.992L176.141 176.547H178.5ZM190.266 176.547H192.305V184.719C192.305 185.49 192.133 186.143 191.789 186.68C191.451 187.221 190.977 187.63 190.367 187.906C189.758 188.188 189.049 188.328 188.242 188.328C187.888 188.328 187.513 188.281 187.117 188.188C186.727 188.094 186.352 187.948 185.992 187.75C185.638 187.552 185.341 187.302 185.102 187L186.094 185.672C186.354 185.974 186.656 186.208 187 186.375C187.344 186.547 187.724 186.633 188.141 186.633C188.547 186.633 188.891 186.557 189.172 186.406C189.453 186.26 189.669 186.044 189.82 185.758C189.971 185.477 190.047 185.135 190.047 184.734V178.5L190.266 176.547ZM184.578 180.875V180.711C184.578 180.065 184.656 179.479 184.812 178.953C184.974 178.422 185.201 177.966 185.492 177.586C185.789 177.206 186.148 176.911 186.57 176.703C186.992 176.495 187.469 176.391 188 176.391C188.562 176.391 189.034 176.495 189.414 176.703C189.794 176.911 190.107 177.208 190.352 177.594C190.596 177.974 190.786 178.424 190.922 178.945C191.062 179.461 191.172 180.026 191.25 180.641V181C191.172 181.589 191.055 182.135 190.898 182.641C190.742 183.146 190.536 183.589 190.281 183.969C190.026 184.344 189.708 184.635 189.328 184.844C188.953 185.052 188.505 185.156 187.984 185.156C187.464 185.156 186.992 185.049 186.57 184.836C186.154 184.622 185.797 184.323 185.5 183.938C185.203 183.552 184.974 183.099 184.812 182.578C184.656 182.057 184.578 181.49 184.578 180.875ZM186.828 180.711V180.875C186.828 181.224 186.862 181.549 186.93 181.852C186.997 182.154 187.102 182.422 187.242 182.656C187.388 182.885 187.568 183.065 187.781 183.195C188 183.32 188.258 183.383 188.555 183.383C188.966 183.383 189.302 183.297 189.562 183.125C189.823 182.948 190.018 182.706 190.148 182.398C190.279 182.091 190.354 181.737 190.375 181.336V180.312C190.365 179.984 190.32 179.69 190.242 179.43C190.164 179.164 190.055 178.938 189.914 178.75C189.773 178.562 189.591 178.417 189.367 178.312C189.143 178.208 188.878 178.156 188.57 178.156C188.273 178.156 188.016 178.224 187.797 178.359C187.583 178.49 187.404 178.669 187.258 178.898C187.117 179.128 187.01 179.398 186.938 179.711C186.865 180.018 186.828 180.352 186.828 180.711Z" fill="white"/>
</g>
</g>
</g>
<defs>
<clipPath id="clip0_848_9594">
<rect width="360" height="360" fill="white"/>
</clipPath>
</defs>
</svg>
